<svg width="100" height="24" viewBox="0 0 100 24" fill="none" xmlns="http://www.w3.org/2000/svg">
<path d="M90.7518 12.2668C90.6121 12.2705 90.4734 12.246 90.3437 12.1949C90.2139 12.1437 90.0962 12.0669 89.9974 11.9692C89.8986 11.8715 89.821 11.7549 89.7693 11.6266C89.7174 11.4982 89.6927 11.3607 89.6961 11.2225C89.7024 10.5631 90.2504 10.1924 90.7518 10.1863C91.2652 10.1811 91.8031 10.6102 91.808 11.2225C91.8126 11.8349 91.268 12.3017 90.7518 12.2668Z" fill="#E4E5E5"/>
<path d="M43.0964 12.027V0.418435C43.0964 0.105201 43.0803 0.128287 43.3952 0.128287C46.2871 0.128287 49.1792 0.128287 52.0715 0.128287C53.1178 0.118138 54.1562 0.307326 55.1301 0.68552C55.8785 0.982708 56.5718 1.40156 57.181 1.92481C57.8703 2.51123 58.4355 3.19658 58.8413 4.00158C59.1948 4.70796 59.4171 5.47159 59.4974 6.25593C59.5373 6.59769 59.5558 6.94158 59.5526 7.2856C59.5203 8.87958 59.0468 10.3191 58.0003 11.5489C57.0132 12.7091 55.7837 13.5046 54.2995 13.9041C54.0878 13.9611 54.0864 13.9611 54.2014 14.1509C55.623 16.4947 57.0446 18.8386 58.4659 21.1824C58.987 22.0413 59.5089 22.8998 60.0316 23.7581C60.0397 23.7711 60.0477 23.7839 60.0554 23.7977C60.1244 23.9234 60.1124 23.9474 59.9651 23.9474C59.0978 23.9474 58.2309 23.9474 57.3636 23.9501C57.2533 23.9501 57.1967 23.903 57.1439 23.8141C56.5196 22.7778 55.894 21.7414 55.2666 20.7053C54.2162 18.9682 53.166 17.2308 52.1159 15.4933C51.8866 15.1141 51.653 14.7373 51.4332 14.3529C51.3571 14.2201 51.2696 14.1707 51.113 14.1716C49.9502 14.1782 48.7872 14.1754 47.6239 14.1749C47.3695 14.1749 47.37 14.1749 47.3691 13.9182C47.3691 13.4556 47.3691 12.9931 47.3628 12.5305C47.3628 12.3421 47.3328 12.1537 47.3414 11.9611C47.3414 11.9201 47.3414 11.8791 47.3481 11.8381C47.3492 11.8172 47.3585 11.7976 47.3739 11.7834C47.3894 11.7692 47.4097 11.7614 47.4309 11.7618C47.488 11.7585 47.545 11.758 47.602 11.758C49.0769 11.758 50.5516 11.7646 52.0265 11.7552C52.859 11.75 53.6702 11.6172 54.4332 11.2658C54.8242 11.0855 55.1874 10.8511 55.5117 10.5696C55.8266 10.3 56.1039 9.99003 56.3361 9.64784C56.6815 9.1437 56.9028 8.56651 56.9827 7.96247C57.091 7.13769 57.0631 6.3214 56.7733 5.52912C56.5238 4.85482 56.1015 4.25633 55.5477 3.79244C54.9731 3.29658 54.2887 2.94158 53.5497 2.75617C53.2427 2.67999 52.9301 2.62723 52.615 2.59838C52.2985 2.56776 51.9827 2.57294 51.6664 2.57246C49.7194 2.57246 47.7721 2.57246 45.8247 2.57246C45.555 2.57246 45.568 2.56353 45.568 2.82353C45.568 9.76086 45.568 16.6984 45.568 23.6361C45.568 23.9732 45.5931 23.9446 45.2581 23.9451H43.358C43.3104 23.9451 43.2629 23.9451 43.2153 23.9451C43.1202 23.9371 43.1027 23.9206 43.096 23.8212C43.0921 23.7645 43.096 23.7081 43.096 23.6516L43.0964 12.027Z" fill="#E4E5E5"/>
<path d="M68.5176 23.7513C68.6683 23.621 68.8073 23.4985 68.9486 23.3792C69.694 22.7481 70.4417 22.1193 71.1331 21.4288C71.1865 21.3723 71.2585 21.3364 71.3363 21.328C71.7336 21.2827 72.126 21.2039 72.5099 21.0923C73.3253 20.8555 74.0756 20.4381 74.704 19.872C75.204 19.4292 75.6366 18.9172 75.9884 18.352C76.4326 17.6178 76.7239 16.8028 76.8447 15.9553C76.9079 15.5387 76.9396 15.118 76.9398 14.6967C76.9398 9.93713 76.9398 5.17767 76.9398 0.418385C76.9398 0.139529 76.8994 0.122112 77.2383 0.123049C77.929 0.123049 78.6179 0.123049 79.3104 0.123049C79.352 0.123049 79.3938 0.123049 79.4351 0.123049C79.5664 0.130112 79.5863 0.149883 79.5921 0.279438C79.5921 0.326523 79.5921 0.373631 79.5921 0.417905C79.5921 5.22242 79.5921 10.028 79.5921 14.8347C79.5921 15.9101 79.4441 16.9661 79.095 17.9906C78.7471 19.0281 78.194 19.9867 77.468 20.8103C76.9329 21.4155 76.3472 21.9671 75.674 22.4226C74.9261 22.9277 74.1024 23.3127 73.233 23.5629C72.6487 23.7289 72.0503 23.8404 71.4453 23.8964C70.9074 23.9458 70.3669 23.9554 69.8277 23.9257C69.4294 23.9063 69.0333 23.8466 68.6383 23.8045C68.5926 23.8034 68.5492 23.7842 68.5176 23.7513Z" fill="#E4E5E5"/>
<path d="M31.7301 19.1604V23.6925C31.7301 23.9389 31.7301 23.9394 31.4821 23.9394H29.5353C29.4936 23.9394 29.4522 23.9394 29.4107 23.9394C29.3156 23.9314 29.2971 23.9149 29.2904 23.8164C29.2865 23.76 29.2904 23.7035 29.2904 23.6468C29.2904 20.733 29.2904 17.8196 29.2904 14.9064C29.2941 14.7532 29.2512 14.6025 29.1667 14.474C28.3852 13.2672 27.6082 12.0583 26.8355 10.8471C25.8585 9.32471 24.8813 7.8025 23.9046 6.28044L20.9737 1.71145C20.6759 1.24731 20.3783 0.783196 20.0812 0.31906C20.0494 0.26914 19.9861 0.216385 20.0136 0.156568C20.0413 0.0967512 20.1258 0.123586 20.1849 0.123586C21.0155 0.123586 21.8461 0.123585 22.6767 0.119814C22.7328 0.115585 22.7889 0.127631 22.8381 0.154488C22.8872 0.181345 22.9274 0.221848 22.9537 0.271014C23.4579 1.06141 23.9679 1.8485 24.476 2.63654C25.2669 3.86122 26.058 5.08591 26.8494 6.31059C27.4565 7.24981 28.0637 8.18874 28.671 9.12734C29.4252 10.2961 30.1787 11.4658 30.9318 12.6365C31.1088 12.8963 31.2704 13.166 31.4159 13.4443C31.6241 13.8603 31.7319 14.3184 31.731 14.7826C31.728 16.2418 31.7278 17.701 31.7301 19.1604Z" fill="#E4E5E5"/>
<path d="M61.327 7.81497V0.399528C61.327 0.124442 61.327 0.124442 61.5985 0.123962H63.6861C63.7274 0.123962 63.7694 0.123962 63.8107 0.126317C63.9234 0.135277 63.9435 0.154591 63.9492 0.267642C63.9525 0.328877 63.9492 0.390567 63.9492 0.452281C63.9492 5.22539 63.9492 9.99944 63.9492 14.7744C63.943 15.5825 64.0688 16.3862 64.3216 17.1545C64.6183 18.0411 65.1187 18.8475 65.7841 19.5097C66.2846 20.0128 66.8358 20.4395 67.4824 20.7428C67.8331 20.8985 68.1969 21.0233 68.5695 21.1163C68.7122 21.1545 68.8498 21.1931 68.9885 21.2361C69.0836 21.2653 69.0836 21.2832 69.0176 21.3613C68.9971 21.3844 68.9738 21.4057 68.9521 21.4274C68.3498 22.0231 67.7456 22.6171 67.1475 23.2171C67.0471 23.3184 66.9658 23.3449 66.8245 23.288C65.912 22.925 65.0682 22.4119 64.3288 21.7703C62.9443 20.5657 62.0375 19.0765 61.6082 17.3028C61.4733 16.7326 61.3868 16.1522 61.3498 15.5677C61.3226 15.1824 61.3261 14.7975 61.3261 14.4127C61.3254 12.2149 61.3256 10.0156 61.327 7.81497Z" fill="#E4E5E5"/>
<path d="M39.7009 0.122161H40.9468C40.9625 0.122161 40.9782 0.122161 40.9944 0.122161C41.0419 0.12591 41.0971 0.104721 41.1252 0.148058C41.1532 0.191395 41.1061 0.233315 41.0823 0.270526C40.8226 0.672789 40.562 1.07473 40.3002 1.47635C39.3135 2.99276 38.3268 4.50855 37.3402 6.02371C36.7859 6.87438 36.2307 7.72475 35.675 8.57481C34.8207 9.88772 33.9667 11.2008 33.1128 12.514C32.9962 12.6935 32.9944 12.694 32.875 12.514C32.4669 11.8899 32.0592 11.2639 31.6453 10.645C31.5762 10.5418 31.5809 10.4707 31.6453 10.3694C32.4717 9.09326 33.2952 7.81566 34.1156 6.53664L37.2446 1.67279C37.5486 1.20175 37.8541 0.730732 38.1537 0.254047C38.1759 0.211304 38.2103 0.175921 38.2525 0.152241C38.2948 0.128561 38.343 0.117613 38.3915 0.120744C38.8287 0.124973 39.265 0.122161 39.7009 0.122161Z" fill="#E4E5E5"/>
<path d="M0.0512911 8.94927C0.182485 7.95279 0.461079 6.98084 0.878115 6.06468C1.23624 5.2754 1.69561 4.53513 2.2449 3.86215C3.81166 1.92583 6.03177 0.614655 8.497 0.169718C8.901 0.098747 9.30868 0.0498557 9.71822 0.0232272C10.025 0.00251864 10.3314 -0.00550423 10.6372 0.00391289C11.746 0.0339928 12.8428 0.23765 13.887 0.607318C14.6317 0.871157 15.3434 1.21886 16.0078 1.64359C16.4654 1.93838 16.8996 2.26731 17.3066 2.62757C19.1412 4.24619 20.3345 6.45805 20.6733 8.86778C20.7133 9.14239 20.7371 9.41889 20.7544 9.69679C20.7701 9.94314 20.7828 10.1895 20.777 10.4363C20.7451 11.8094 20.4732 13.1315 19.9208 14.393C19.2878 15.8395 18.3274 17.1227 17.1141 18.1433C17.0776 18.1737 17.0538 18.216 17.0466 18.2624C17.0395 18.3088 17.0494 18.3561 17.075 18.3959C17.6776 19.3275 18.2801 20.2592 18.8826 21.1908L20.5953 23.8439C20.6073 23.8605 20.6184 23.8777 20.6286 23.8955C20.6671 23.9682 20.6577 23.9897 20.581 23.9958C20.5448 23.9977 20.5081 23.9977 20.4716 23.9958C19.5777 23.9958 18.6834 23.9931 17.7891 23.9988C17.7281 24.0041 17.6672 23.9917 17.6134 23.9629C17.5596 23.9344 17.5157 23.8905 17.4869 23.8372C16.618 22.4823 15.7458 21.1291 14.8704 19.7778C14.8595 19.7604 14.8466 19.744 14.8367 19.7259C14.7977 19.6521 14.7444 19.6445 14.6686 19.6788C14.4537 19.7703 14.2406 19.8617 14.0197 19.9431C13.2745 20.2201 12.4993 20.4107 11.7096 20.5113C11.4242 20.5469 11.1387 20.5584 10.857 20.5917C10.8413 20.5917 10.8256 20.5917 10.8095 20.5917C10.6573 20.5917 10.6368 20.5771 10.6349 20.4283C10.6317 20.1188 10.6382 19.8098 10.6305 19.5008C10.6225 19.1467 10.6068 18.7915 10.6305 18.4377C10.6349 18.3764 10.6305 18.3143 10.6335 18.2525C10.6359 18.2187 10.6499 18.1869 10.6737 18.1625C10.6973 18.138 10.7289 18.1225 10.7628 18.1188C10.9436 18.1001 11.1246 18.0829 11.3053 18.0633C12.0134 17.9801 12.7066 17.8002 13.3652 17.5291C13.4218 17.5065 13.4878 17.4491 13.5379 17.482C13.6026 17.5264 13.5478 17.6068 13.5379 17.6672C13.3952 18.4061 13.8653 19.3803 14.8515 19.5748C15.858 19.773 16.7724 19.1085 16.9241 18.1805C17.0774 17.2445 16.476 16.5088 15.6872 16.2861C15.6345 16.271 15.5717 16.2766 15.5346 16.2201C15.5468 16.1584 15.5997 16.1287 15.641 16.0925C17.0436 14.8374 17.9428 13.1244 18.1744 11.2668C18.378 9.65064 18.0864 8.10376 17.3181 6.63085C17.1064 6.22491 16.8546 5.8407 16.5665 5.4839C15.3665 4.00016 13.854 3.05543 12.0284 2.64971C10.3235 2.2755 8.54179 2.47079 6.96084 3.20505C5.5036 3.8805 4.28968 4.98084 3.48181 6.3586C2.99386 7.18651 2.66526 8.09688 2.51274 9.04349C2.48372 9.22106 2.46516 9.40006 2.43995 9.57857C2.42139 9.7161 2.41377 9.72554 2.27581 9.72648C1.93281 9.72883 1.58981 9.72648 1.24681 9.72648H0.116461C0.100394 9.72653 0.0844649 9.72328 0.0697365 9.71693C0.054985 9.71057 0.0417341 9.70125 0.0308378 9.68954C0.0199185 9.67786 0.0115853 9.66406 0.00634493 9.64899C0.00110456 9.63395 -0.000926841 9.61798 0.000389021 9.60211L0.0512911 8.94927Z" fill="#E4E5E5"/>
<path d="M15.2322 18.9629C15.0923 18.9666 14.9534 18.9421 14.8236 18.8907C14.6937 18.8395 14.5757 18.7627 14.4769 18.6649C14.3779 18.5671 14.3001 18.4503 14.2483 18.3218C14.1964 18.1931 14.1715 18.0555 14.1752 17.9172C14.1819 17.2578 14.7304 16.8856 15.2327 16.8809C15.7466 16.8757 16.2845 17.3049 16.2893 17.9172C16.2939 18.5296 15.7475 18.9977 15.2322 18.9629Z" fill="#E4E5E5"/>
<path d="M8.95642 15.9483V20.2704C8.95642 20.5031 8.95642 20.5088 8.72256 20.4706C8.02931 20.36 7.34876 20.1822 6.69059 19.9399C6.55834 19.8928 6.54264 19.8055 6.54312 19.6882C6.54502 18.3195 6.54502 16.9508 6.54312 15.5823C6.54312 15.1141 6.54312 14.6457 6.54312 14.1772C6.54312 14.1362 6.54312 14.0948 6.54312 14.0538C6.53645 13.9525 6.52267 13.9374 6.42467 13.9308C6.3728 13.9271 6.32095 13.9308 6.26862 13.9308H0.871896C0.597874 13.9308 0.628808 13.9426 0.543162 13.7C0.296426 13.0055 0.125755 12.2866 0.0341297 11.5559C0.0146226 11.4009 0.04318 11.3675 0.213965 11.3675C0.916151 11.3656 1.61801 11.3656 2.31955 11.3675H8.6667C8.95503 11.3675 8.95503 11.3675 8.95503 11.6581L8.95642 15.9483Z" fill="url(#paint0_linear_2780_26770)"/>
<path d="M89.218 12.2238C89.2284 12.2267 89.2393 12.2266 89.2494 12.2233C89.2596 12.22 89.2686 12.2138 89.2753 12.2054C89.2818 12.1971 89.2857 12.187 89.2864 12.1764C89.2873 12.1659 89.2848 12.1553 89.2794 12.1461C89.1068 11.8686 89.0179 11.5479 89.0234 11.222C89.0207 10.9177 89.1026 10.6185 89.2605 10.3575C89.4184 10.0964 89.646 9.88362 89.9184 9.74245C89.9274 9.73703 89.9346 9.7291 89.9392 9.71964C89.9436 9.71018 89.9452 9.69959 89.9436 9.68924C89.9422 9.67889 89.9376 9.66922 89.9307 9.66142C89.9235 9.65363 89.9143 9.64805 89.9041 9.64542C86.4155 8.68074 85.7481 7.67603 85.7481 6.0863C85.7481 3.0637 89.436 2.73728 91.0217 2.73728C94.3042 2.73728 96.2494 3.99917 96.8004 6.48856L96.971 7.26058C96.9738 7.27251 96.9805 7.28319 96.9899 7.29082C96.9996 7.29843 97.0116 7.30257 97.0239 7.3025H99.6752C99.6828 7.30248 99.6907 7.30077 99.6976 7.29752C99.7048 7.29427 99.711 7.28956 99.7159 7.28369C99.7209 7.27784 99.7246 7.27096 99.7267 7.26355C99.7288 7.25615 99.7292 7.2484 99.7281 7.24081L99.5448 6.10326C99.2551 4.30582 97.8478 0.124481 91.0582 0.124481C86.1244 0.124481 82.9365 2.48811 82.9365 6.1466C82.9342 9.84042 85.7453 11.2691 89.218 12.2238Z" fill="#E4E5E5"/>
<path d="M92.256 10.2211C92.2456 10.2184 92.2345 10.2189 92.2241 10.2225C92.2139 10.2261 92.2052 10.2327 92.1987 10.2414C92.1922 10.25 92.1885 10.2604 92.1883 10.2712C92.1878 10.2819 92.1909 10.2925 92.1966 10.3016C92.3834 10.5734 92.4843 10.8941 92.4863 11.2229C92.4861 11.5287 92.4044 11.829 92.249 12.0933C92.0937 12.3575 91.8704 12.5763 91.6019 12.7274C91.5929 12.733 91.5858 12.7411 91.5814 12.7507C91.577 12.7604 91.5756 12.771 91.5775 12.7814C91.5791 12.7918 91.5839 12.8015 91.5913 12.8091C91.5987 12.8168 91.6082 12.8221 91.6186 12.8244C96.3915 14.0336 97.1879 15.1838 97.1879 17.3511C97.1879 19.8432 94.9338 21.3307 91.1589 21.3307C89.0295 21.3307 85.3359 20.7552 84.5235 16.8993L84.3589 16.117C84.3564 16.105 84.3497 16.0943 84.3402 16.0866C84.3308 16.0789 84.3188 16.0746 84.3065 16.0746H81.573C81.5649 16.0746 81.5571 16.0763 81.5499 16.0796C81.5427 16.083 81.5363 16.0879 81.5312 16.094C81.5264 16.1001 81.5227 16.1072 81.5206 16.1148C81.5187 16.1224 81.5185 16.1304 81.5201 16.1381L81.7508 17.309C82.5825 21.5252 85.9991 23.9435 91.1227 23.9435C93.7313 23.9435 95.9307 23.352 97.4834 22.232C99.1298 21.0443 99.9999 19.3355 99.9999 17.2912C100.002 13.5677 97.8839 11.6064 92.256 10.2211Z" fill="#E4E5E5"/>
<defs>
<linearGradient id="paint0_linear_2780_26770" x1="0.0215483" y1="11.3661" x2="9.5835" y2="12.0882" gradientUnits="userSpaceOnUse">
<stop stop-color="#46DF93"/>
<stop offset="1" stop-color="#CFF242"/>
</linearGradient>
</defs>
</svg>
